<svg xmlns="http://www.w3.org/2000/svg" xmlns:xlink="http://www.w3.org/1999/xlink" viewBox="0 0 64.24 60"><defs><style>.cls-1{fill:url(#linear-gradient);}.cls-2{fill:url(#linear-gradient-2);}.cls-3{fill:url(#linear-gradient-3);}</style><linearGradient id="linear-gradient" x1="0.2" y1="52.63" x2="29.79" y2="35.55" gradientUnits="userSpaceOnUse"><stop offset="0" stop-color="#ee3a3a"/><stop offset="1" stop-color="#bc132b"/></linearGradient><linearGradient id="linear-gradient-2" x1="23.13" y1="25.23" x2="14.23" y2="0.78" xlink:href="#linear-gradient"/><linearGradient id="linear-gradient-3" x1="29.04" y1="43.49" x2="62.05" y2="24.43" xlink:href="#linear-gradient"/></defs><title>icone</title><g id="Layer_2" data-name="Layer 2"><g id="Layer_1-2" data-name="Layer 1"><path class="cls-1" d="M28.75,43l-.87-3.11L23.71,25a12.66,12.66,0,0,1-3.08.86l4.31,15.34-5.57,2.51a10.39,10.39,0,1,0,1.32,2.91l5.12-2.31ZM16.28,49.47a5.74,5.74,0,1,1-1.37-3.73,5.67,5.67,0,0,1,1.31,2.91A5.55,5.55,0,0,1,16.28,49.47Z"/><path class="cls-2" d="M18.68,0a13,13,0,0,0,0,26,13.2,13.2,0,0,0,5-1,13,13,0,0,0-5-25ZM22.4,20.34a8,8,0,0,1-3.08.86c-.21,0-.42,0-.64,0a8.22,8.22,0,1,1,3.72-.89Z"/><path class="cls-3" d="M47.94,16.27a16.32,16.32,0,0,0-16.3,16.31,16,16,0,0,0,.86,5.21h0l-4.62,2.08L28.75,43l5.06-2.29A16.3,16.3,0,1,0,47.94,16.27Zm0,26.22a9.93,9.93,0,0,1-8.26-4.44,9.75,9.75,0,0,1-1.31-2.9A9.54,9.54,0,0,1,38,32.58a9.91,9.91,0,1,1,9.91,9.91Z"/></g></g></svg>