<svg xmlns="http://www.w3.org/2000/svg" xmlns:xlink="http://www.w3.org/1999/xlink" viewBox="0 0 123.84 30"><defs><style>.cls-1{fill:url(#linear-gradient);}.cls-2{fill:url(#linear-gradient-2);}.cls-3{fill:url(#linear-gradient-3);}.cls-4{fill:url(#linear-gradient-4);}</style><linearGradient id="linear-gradient" x1="44.24" y1="24.83" x2="44.24" y2="7.87" gradientUnits="userSpaceOnUse"><stop offset="0" stop-color="#bc132b"/><stop offset="1" stop-color="#ee3a3a"/></linearGradient><linearGradient id="linear-gradient-2" x1="91.82" y1="26.32" x2="106.62" y2="17.77" gradientUnits="userSpaceOnUse"><stop offset="0" stop-color="#ee3a3a"/><stop offset="1" stop-color="#bc132b"/></linearGradient><linearGradient id="linear-gradient-3" x1="103.29" y1="12.62" x2="98.84" y2="0.39" xlink:href="#linear-gradient-2"/><linearGradient id="linear-gradient-4" x1="106.24" y1="21.74" x2="122.75" y2="12.21" xlink:href="#linear-gradient-2"/></defs><title>Logo</title><g id="Layer_2" data-name="Layer 2"><g id="Layer_1-2" data-name="Layer 1"><path class="cls-1" d="M0,24.42V8.27H2.54a13.11,13.11,0,0,1,3.23.29A4.3,4.3,0,0,1,8.08,10a3.78,3.78,0,0,1,.86,2.46,3.59,3.59,0,0,1-.39,1.68,4.35,4.35,0,0,1-1.27,1.41,5,5,0,0,1,2.15,1.73,4.39,4.39,0,0,1,.68,2.45,4.65,4.65,0,0,1-2.52,4.16,7,7,0,0,1-3.06.55ZM3.07,11.2v3.41h.68a2.48,2.48,0,0,0,1.67-.48A1.6,1.6,0,0,0,6,12.85a1.48,1.48,0,0,0-.52-1.2,2.34,2.34,0,0,0-1.57-.45Zm0,6.15v4.14h.77A4.83,4.83,0,0,0,6.43,21a1.63,1.63,0,0,0,.66-1.41A2,2,0,0,0,6.31,18a4.27,4.27,0,0,0-2.6-.61ZM13.25,8.27h3.26a10.74,10.74,0,0,1,3.81.48,3.89,3.89,0,0,1,1.82,1.59,4.77,4.77,0,0,1,.7,2.62,4.45,4.45,0,0,1-.77,2.66,4.54,4.54,0,0,1-2.3,1.62l3.83,7.18H20.24l-3.63-6.84h-.28v6.84H13.25Zm3.08,6.31h1a3.74,3.74,0,0,0,2-.38,1.44,1.44,0,0,0,.55-1.28,1.58,1.58,0,0,0-.27-.92,1.53,1.53,0,0,0-.74-.56,5.61,5.61,0,0,0-1.68-.17h-.84ZM31,8.27h3.12l6.21,16.15H37.15L35.88,21.1H29.29L28,24.42h-3.2Zm1.58,4.28L30.42,18.1h4.32ZM42.73,8.27h3L52.59,18.9V8.27h3.07V24.42h-3L45.8,13.83V24.42H42.73Zm31.46,2.84L72,13.16a6.62,6.62,0,0,0-4.93-2.32,5.41,5.41,0,0,0-5.49,5.48,5.73,5.73,0,0,0,.71,2.87,5,5,0,0,0,2,2,5.74,5.74,0,0,0,2.85.71,5.8,5.8,0,0,0,2.45-.5A8.53,8.53,0,0,0,72,19.56l2.09,2.17a11.61,11.61,0,0,1-3.38,2.42,9.3,9.3,0,0,1-3.64.68A8.37,8.37,0,0,1,61,22.44a8.26,8.26,0,0,1-2.4-6.12A8.35,8.35,0,0,1,59.64,12a8.13,8.13,0,0,1,3.13-3,8.85,8.85,0,0,1,4.39-1.14A9.17,9.17,0,0,1,71,8.71,9.05,9.05,0,0,1,74.19,11.11Zm2.68-2.84H80v6.1h5.39V8.27h3.11V24.42H85.38V17.34H80v7.08H76.87Z"/><path class="cls-2" d="M106.1,21.49l-.44-1.55-2.09-7.44a6.57,6.57,0,0,1-1.53.44l2.15,7.67-2.78,1.25a5.27,5.27,0,1,0,.85,2.87,5.06,5.06,0,0,0-.2-1.41l2.57-1.16Zm-6.24,3.24a2.88,2.88,0,1,1-.69-1.86,2.73,2.73,0,0,1,.66,1.45A2.83,2.83,0,0,1,99.86,24.73Z"/><path class="cls-3" d="M101.06,0a6.51,6.51,0,0,0,0,13,7.93,7.93,0,0,0,1-.07,6.51,6.51,0,0,0-1-12.94Zm1.86,10.17a4,4,0,0,1-1.54.43h-.32a4.1,4.1,0,1,1,1.86-.44Z"/><path class="cls-4" d="M115.69,8.14a8.16,8.16,0,0,0-8.15,8.15A8.07,8.07,0,0,0,108,18.9h0l-2.31,1,.44,1.55,2.53-1.14a8.15,8.15,0,1,0,7.06-12.21Zm0,13.1a5,5,0,1,1,5-4.95A5,5,0,0,1,115.69,21.24Z"/></g></g></svg>